<?xml version="1.0" encoding="UTF-8" standalone="no"?>
<svg
   xmlns:dc="http://purl.org/dc/elements/1.1/"
   xmlns:cc="http://creativecommons.org/ns#"
   xmlns:rdf="http://www.w3.org/1999/02/22-rdf-syntax-ns#"
   xmlns:svg="http://www.w3.org/2000/svg"
   xmlns="http://www.w3.org/2000/svg"
   xmlns:sodipodi="http://sodipodi.sourceforge.net/DTD/sodipodi-0.dtd"
   xmlns:inkscape="http://www.inkscape.org/namespaces/inkscape"
   viewBox="0 -256 1792 1792"
   id="svg3001"
   version="1.1"
   inkscape:version="0.91 r13725"
   width="100%"
   height="100%"
   sodipodi:docname="Arrow_left_font_awesome.svg">
  <metadata
     id="metadata3011">
    <rdf:RDF>
      <cc:Work
         rdf:about="">
        <dc:format>image/svg+xml</dc:format>
        <dc:type
           rdf:resource="http://purl.org/dc/dcmitype/StillImage" />
      </cc:Work>
    </rdf:RDF>
  </metadata>
  <defs
     id="defs3009" />
  <sodipodi:namedview
     pagecolor="#ffffff"
     bordercolor="#666666"
     borderopacity="1"
     objecttolerance="10"
     gridtolerance="10"
     guidetolerance="10"
     inkscape:pageopacity="0"
     inkscape:pageshadow="2"
     inkscape:window-width="1409"
     inkscape:window-height="872"
     id="namedview3007"
     showgrid="false"
     inkscape:zoom="0.13169643"
     inkscape:cx="37.966111"
     inkscape:cy="911.18645"
     inkscape:window-x="10"
     inkscape:window-y="34"
     inkscape:window-maximized="0"
     inkscape:current-layer="svg3001" />
  <path
     style="fill:#ffffff"
     inkscape:connector-curvature="0"
     id="path3005"
     d="m 1634.7119,584.678 0,128 q 0,53 -32.5,90.5 -32.5,37.5 -84.5,37.5 l -704.00004,0 293.00004,294 q 38,36 38,90 0,54 -38,90 l -75,76 q -37.00004,37 -90.00004,37 -52,0 -91,-37 l -651,-652 q -37,-37 -37,-90 0,-52 37,-91 l 651,-650 q 38,-38 91,-38 52,0 90.00004,38 l 75,74 q 38,38 38,91 0,53 -38,91 l -293.00004,293 704.00004,0 q 52,0 84.5,37.5 32.5,37.5 32.5,90.5 z" />
</svg>
