<?xml version="1.0" encoding="utf-8"?>
<!-- Generator: Adobe Illustrator 18.1.1, SVG Export Plug-In . SVG Version: 6.00 Build 0)  -->
<svg version="1.1" id="Layer_1" xmlns="http://www.w3.org/2000/svg" xmlns:xlink="http://www.w3.org/1999/xlink" x="0px" y="0px"
	 viewBox="0 0 79 84" enable-background="new 0 0 79 84" xml:space="preserve">
<g>
	<g>
		<path fill="#1995A3" d="M39.3,76.9c-18.7,0-34-15.2-34-34s15.2-34,34-34s34,15.2,34,34S58,76.9,39.3,76.9z M39.3,14.3
			c-15.8,0-28.6,12.8-28.6,28.6c0,15.8,12.8,28.6,28.6,28.6s28.6-12.8,28.6-28.6C67.9,27.2,55.1,14.3,39.3,14.3z"/>
	</g>
	<rect x="36.3" y="10.8" fill="#1995A3" width="5.4" height="8.2"/>
	<rect x="36.3" y="66.5" fill="#1995A3" width="5.4" height="8.2"/>
	<rect x="62.5" y="40.8" fill="#1995A3" width="8.2" height="5.4"/>
	<rect x="7.6" y="40.8" fill="#1995A3" width="8.2" height="5.4"/>
	<circle fill="#1995A3" cx="39.3" cy="43.5" r="4.2"/>
	<rect x="38.1" y="24.2" fill="#1995A3" width="2.3" height="26.9"/>
	
		<rect x="62.9" y="16.2" transform="matrix(0.7071 0.7071 -0.7071 0.7071 32.5004 -40.8542)" fill="#1995A3" width="5.4" height="5.3"/>
	
		<rect x="63.6" y="13.7" transform="matrix(0.7071 0.7071 -0.7071 0.7071 31.4957 -43.2231)" fill="#1995A3" width="8.7" height="5.4"/>
</g>
</svg>
